<mxfile host="app.diagrams.net" modified="2023-09-20T01:22:48.104Z" agent="Mozilla/5.0 (Windows NT 10.0; Win64; x64) AppleWebKit/537.36 (KHTML, like Gecko) Chrome/116.0.0.0 Safari/537.36" etag="advDxba52LJN6GhO5TBL" version="21.6.9" type="device">
  <diagram name="페이지-1" id="TQ0cyp87wXcoUcHucZ0J">
    <mxGraphModel dx="2396" dy="1981" grid="1" gridSize="10" guides="1" tooltips="1" connect="1" arrows="1" fold="1" page="1" pageScale="1" pageWidth="827" pageHeight="1169" math="0" shadow="0">
      <root>
        <mxCell id="0" />
        <mxCell id="1" parent="0" />
        <mxCell id="rkLHnBhGYaF2uc3NjKM3-2" value="" style="endArrow=classic;html=1;rounded=0;exitX=1;exitY=0.75;exitDx=0;exitDy=0;" parent="1" source="rkLHnBhGYaF2uc3NjKM3-12" edge="1">
          <mxGeometry width="50" height="50" relative="1" as="geometry">
            <mxPoint x="490" y="340" as="sourcePoint" />
            <mxPoint x="610" y="420" as="targetPoint" />
          </mxGeometry>
        </mxCell>
        <mxCell id="rkLHnBhGYaF2uc3NjKM3-4" value="&lt;span style=&quot;font-size: 18px;&quot;&gt;list.do&lt;br&gt;&lt;/span&gt;" style="text;html=1;strokeColor=none;fillColor=#FFFF78;align=center;verticalAlign=middle;whiteSpace=wrap;rounded=0;" parent="1" vertex="1">
          <mxGeometry x="610" y="370" width="120" height="100" as="geometry" />
        </mxCell>
        <mxCell id="rkLHnBhGYaF2uc3NjKM3-6" value="" style="endArrow=classic;html=1;rounded=0;exitX=1;exitY=0.5;exitDx=0;exitDy=0;entryX=0;entryY=0.5;entryDx=0;entryDy=0;" parent="1" source="rkLHnBhGYaF2uc3NjKM3-4" target="rkLHnBhGYaF2uc3NjKM3-7" edge="1">
          <mxGeometry width="50" height="50" relative="1" as="geometry">
            <mxPoint x="540" y="430" as="sourcePoint" />
            <mxPoint x="820" y="420" as="targetPoint" />
          </mxGeometry>
        </mxCell>
        <mxCell id="rkLHnBhGYaF2uc3NjKM3-7" value="&lt;font style=&quot;font-size: 19px;&quot;&gt;eventList.jsp&lt;/font&gt;" style="rounded=0;whiteSpace=wrap;html=1;" parent="1" vertex="1">
          <mxGeometry x="850" y="390" width="160" height="60" as="geometry" />
        </mxCell>
        <mxCell id="nXmFsh59E-W-UfocN87j-35" style="edgeStyle=orthogonalEdgeStyle;rounded=0;orthogonalLoop=1;jettySize=auto;html=1;entryX=0;entryY=0.5;entryDx=0;entryDy=0;" parent="1" source="rkLHnBhGYaF2uc3NjKM3-8" target="nXmFsh59E-W-UfocN87j-34" edge="1">
          <mxGeometry relative="1" as="geometry" />
        </mxCell>
        <mxCell id="rkLHnBhGYaF2uc3NjKM3-8" value="&lt;span style=&quot;font-size: 18px;&quot;&gt;detail.do&lt;br&gt;&lt;/span&gt;" style="text;html=1;strokeColor=none;fillColor=#FFFF78;align=center;verticalAlign=middle;whiteSpace=wrap;rounded=0;" parent="1" vertex="1">
          <mxGeometry x="362.5" y="525" width="120" height="100" as="geometry" />
        </mxCell>
        <mxCell id="rkLHnBhGYaF2uc3NjKM3-9" value="" style="endArrow=classic;html=1;rounded=0;exitX=0;exitY=0.75;exitDx=0;exitDy=0;" parent="1" source="rkLHnBhGYaF2uc3NjKM3-12" edge="1">
          <mxGeometry width="50" height="50" relative="1" as="geometry">
            <mxPoint x="240" y="250" as="sourcePoint" />
            <mxPoint x="250" y="380" as="targetPoint" />
          </mxGeometry>
        </mxCell>
        <mxCell id="nXmFsh59E-W-UfocN87j-33" style="edgeStyle=orthogonalEdgeStyle;rounded=0;orthogonalLoop=1;jettySize=auto;html=1;exitX=0.5;exitY=1;exitDx=0;exitDy=0;" parent="1" source="rkLHnBhGYaF2uc3NjKM3-12" target="rkLHnBhGYaF2uc3NjKM3-8" edge="1">
          <mxGeometry relative="1" as="geometry" />
        </mxCell>
        <mxCell id="nXmFsh59E-W-UfocN87j-46" style="edgeStyle=orthogonalEdgeStyle;rounded=0;orthogonalLoop=1;jettySize=auto;html=1;entryX=0.5;entryY=1;entryDx=0;entryDy=0;" parent="1" source="rkLHnBhGYaF2uc3NjKM3-12" target="rkLHnBhGYaF2uc3NjKM3-17" edge="1">
          <mxGeometry relative="1" as="geometry" />
        </mxCell>
        <mxCell id="rkLHnBhGYaF2uc3NjKM3-12" value="&lt;font style=&quot;&quot;&gt;&lt;font style=&quot;font-size: 20px;&quot;&gt;eventController&lt;/font&gt;&lt;br&gt;&lt;/font&gt;" style="shape=hexagon;perimeter=hexagonPerimeter2;whiteSpace=wrap;html=1;fixedSize=1;fillColor=#8FFBFF;" parent="1" vertex="1">
          <mxGeometry x="335" y="290" width="175" height="80" as="geometry" />
        </mxCell>
        <mxCell id="rkLHnBhGYaF2uc3NjKM3-13" value="&lt;span style=&quot;font-size: 18px;&quot;&gt;insert.do&lt;br&gt;&lt;/span&gt;" style="text;html=1;strokeColor=none;fillColor=#FFFF78;align=center;verticalAlign=middle;whiteSpace=wrap;rounded=0;" parent="1" vertex="1">
          <mxGeometry x="130" y="330" width="120" height="100" as="geometry" />
        </mxCell>
        <mxCell id="rkLHnBhGYaF2uc3NjKM3-14" value="" style="endArrow=classic;html=1;rounded=0;exitX=0;exitY=0.25;exitDx=0;exitDy=0;" parent="1" source="rkLHnBhGYaF2uc3NjKM3-12" edge="1">
          <mxGeometry width="50" height="50" relative="1" as="geometry">
            <mxPoint x="290" y="240" as="sourcePoint" />
            <mxPoint x="250" y="270" as="targetPoint" />
          </mxGeometry>
        </mxCell>
        <mxCell id="rkLHnBhGYaF2uc3NjKM3-15" value="&lt;span style=&quot;font-size: 18px;&quot;&gt;delete.do&lt;br&gt;&lt;/span&gt;" style="text;html=1;strokeColor=none;fillColor=#FFFF78;align=center;verticalAlign=middle;whiteSpace=wrap;rounded=0;" parent="1" vertex="1">
          <mxGeometry x="130" y="210" width="120" height="100" as="geometry" />
        </mxCell>
        <mxCell id="nXmFsh59E-W-UfocN87j-58" style="edgeStyle=orthogonalEdgeStyle;rounded=0;orthogonalLoop=1;jettySize=auto;html=1;entryX=0.422;entryY=0.987;entryDx=0;entryDy=0;entryPerimeter=0;" parent="1" source="rkLHnBhGYaF2uc3NjKM3-17" target="rkLHnBhGYaF2uc3NjKM3-49" edge="1">
          <mxGeometry relative="1" as="geometry" />
        </mxCell>
        <mxCell id="rkLHnBhGYaF2uc3NjKM3-17" value="&lt;span style=&quot;font-size: 18px;&quot;&gt;edit.do&lt;br&gt;&lt;/span&gt;" style="text;html=1;strokeColor=none;fillColor=#FFFF78;align=center;verticalAlign=middle;whiteSpace=wrap;rounded=0;" parent="1" vertex="1">
          <mxGeometry x="362.5" y="110" width="120" height="100" as="geometry" />
        </mxCell>
        <mxCell id="rkLHnBhGYaF2uc3NjKM3-18" value="" style="endArrow=classic;html=1;rounded=0;exitX=0;exitY=0.5;exitDx=0;exitDy=0;entryX=1;entryY=0.5;entryDx=0;entryDy=0;" parent="1" source="rkLHnBhGYaF2uc3NjKM3-15" edge="1">
          <mxGeometry width="50" height="50" relative="1" as="geometry">
            <mxPoint x="60" y="140" as="sourcePoint" />
            <mxPoint x="-40" y="260" as="targetPoint" />
          </mxGeometry>
        </mxCell>
        <mxCell id="rkLHnBhGYaF2uc3NjKM3-20" value="" style="endArrow=classic;html=1;rounded=0;exitX=0;exitY=0.5;exitDx=0;exitDy=0;" parent="1" source="rkLHnBhGYaF2uc3NjKM3-13" edge="1">
          <mxGeometry width="50" height="50" relative="1" as="geometry">
            <mxPoint x="500" y="90" as="sourcePoint" />
            <mxPoint x="-40" y="380" as="targetPoint" />
          </mxGeometry>
        </mxCell>
        <mxCell id="rkLHnBhGYaF2uc3NjKM3-21" value="&lt;font style=&quot;font-size: 19px;&quot;&gt;eventInsert.jsp&lt;/font&gt;" style="rounded=0;whiteSpace=wrap;html=1;" parent="1" vertex="1">
          <mxGeometry x="-210" y="350" width="170" height="60" as="geometry" />
        </mxCell>
        <mxCell id="rkLHnBhGYaF2uc3NjKM3-23" value="" style="endArrow=classic;html=1;rounded=0;exitX=0.5;exitY=0;exitDx=0;exitDy=0;" parent="1" source="rkLHnBhGYaF2uc3NjKM3-15" edge="1">
          <mxGeometry width="50" height="50" relative="1" as="geometry">
            <mxPoint x="500" y="90" as="sourcePoint" />
            <mxPoint x="190" y="120" as="targetPoint" />
          </mxGeometry>
        </mxCell>
        <mxCell id="rkLHnBhGYaF2uc3NjKM3-25" value="DB에서 삭제요청" style="text;html=1;strokeColor=none;fillColor=none;align=center;verticalAlign=middle;whiteSpace=wrap;rounded=0;" parent="1" vertex="1">
          <mxGeometry x="180" y="155" width="120" height="30" as="geometry" />
        </mxCell>
        <mxCell id="rkLHnBhGYaF2uc3NjKM3-26" value="게시글 삭제후 목록으로 이동" style="text;html=1;strokeColor=none;fillColor=none;align=center;verticalAlign=middle;whiteSpace=wrap;rounded=0;" parent="1" vertex="1">
          <mxGeometry x="-20" y="230" width="130" height="30" as="geometry" />
        </mxCell>
        <mxCell id="rkLHnBhGYaF2uc3NjKM3-27" value="이벤트 등록 페이지로 이동" style="text;html=1;strokeColor=none;fillColor=none;align=center;verticalAlign=middle;whiteSpace=wrap;rounded=0;" parent="1" vertex="1">
          <mxGeometry x="5" y="350" width="80" height="30" as="geometry" />
        </mxCell>
        <mxCell id="rkLHnBhGYaF2uc3NjKM3-28" value="이벤트 게시글&lt;br&gt;삭제 요청" style="text;html=1;strokeColor=none;fillColor=none;align=center;verticalAlign=middle;whiteSpace=wrap;rounded=0;" parent="1" vertex="1">
          <mxGeometry x="270" y="260" width="120" height="30" as="geometry" />
        </mxCell>
        <mxCell id="rkLHnBhGYaF2uc3NjKM3-29" value="이벤트 게시글&lt;br&gt;&amp;nbsp;등록 요청" style="text;html=1;strokeColor=none;fillColor=none;align=center;verticalAlign=middle;whiteSpace=wrap;rounded=0;" parent="1" vertex="1">
          <mxGeometry x="260" y="370" width="120" height="30" as="geometry" />
        </mxCell>
        <mxCell id="rkLHnBhGYaF2uc3NjKM3-30" value="이벤트 게시물&lt;br&gt;상세보기 요청" style="text;html=1;strokeColor=none;fillColor=none;align=center;verticalAlign=middle;whiteSpace=wrap;rounded=0;" parent="1" vertex="1">
          <mxGeometry x="410" y="430" width="120" height="30" as="geometry" />
        </mxCell>
        <mxCell id="rkLHnBhGYaF2uc3NjKM3-31" value="이벤트 게시판&lt;br&gt;목록 요청" style="text;html=1;strokeColor=none;fillColor=none;align=center;verticalAlign=middle;whiteSpace=wrap;rounded=0;" parent="1" vertex="1">
          <mxGeometry x="510" y="340" width="120" height="30" as="geometry" />
        </mxCell>
        <mxCell id="rkLHnBhGYaF2uc3NjKM3-35" value="" style="endArrow=classic;html=1;rounded=0;exitX=0.5;exitY=0;exitDx=0;exitDy=0;entryX=0.508;entryY=1.009;entryDx=0;entryDy=0;entryPerimeter=0;" parent="1" source="rkLHnBhGYaF2uc3NjKM3-37" edge="1">
          <mxGeometry width="50" height="50" relative="1" as="geometry">
            <mxPoint x="-463" y="285" as="sourcePoint" />
            <mxPoint x="-399.03999999999996" y="240.98999999999978" as="targetPoint" />
          </mxGeometry>
        </mxCell>
        <mxCell id="rkLHnBhGYaF2uc3NjKM3-36" value="" style="endArrow=classic;html=1;rounded=0;exitX=0;exitY=0.5;exitDx=0;exitDy=0;" parent="1" source="rkLHnBhGYaF2uc3NjKM3-21" edge="1">
          <mxGeometry width="50" height="50" relative="1" as="geometry">
            <mxPoint x="-80" y="260" as="sourcePoint" />
            <mxPoint x="-340" y="380" as="targetPoint" />
          </mxGeometry>
        </mxCell>
        <mxCell id="rkLHnBhGYaF2uc3NjKM3-37" value="&lt;span style=&quot;font-size: 18px;&quot;&gt;insert.do&lt;br&gt;&lt;/span&gt;" style="text;html=1;strokeColor=none;fillColor=#FFFF78;align=center;verticalAlign=middle;whiteSpace=wrap;rounded=0;" parent="1" vertex="1">
          <mxGeometry x="-460" y="330" width="120" height="100" as="geometry" />
        </mxCell>
        <mxCell id="rkLHnBhGYaF2uc3NjKM3-38" value="이미지 없는 게시글 추가" style="text;html=1;strokeColor=none;fillColor=none;align=center;verticalAlign=middle;whiteSpace=wrap;rounded=0;" parent="1" vertex="1">
          <mxGeometry x="-350" y="350" width="140" height="30" as="geometry" />
        </mxCell>
        <mxCell id="rkLHnBhGYaF2uc3NjKM3-40" value="DB에 추가요청" style="text;html=1;strokeColor=none;fillColor=none;align=center;verticalAlign=middle;whiteSpace=wrap;rounded=0;" parent="1" vertex="1">
          <mxGeometry x="-410" y="280" width="120" height="30" as="geometry" />
        </mxCell>
        <mxCell id="rkLHnBhGYaF2uc3NjKM3-42" value="" style="endArrow=classic;html=1;rounded=0;exitX=0;exitY=0.5;exitDx=0;exitDy=0;entryX=1;entryY=0.5;entryDx=0;entryDy=0;" parent="1" source="rkLHnBhGYaF2uc3NjKM3-37" edge="1">
          <mxGeometry width="50" height="50" relative="1" as="geometry">
            <mxPoint x="-80" y="260" as="sourcePoint" />
            <mxPoint x="-590" y="380" as="targetPoint" />
          </mxGeometry>
        </mxCell>
        <mxCell id="rkLHnBhGYaF2uc3NjKM3-43" value="게시글 추가후 목록으로 이동" style="text;html=1;strokeColor=none;fillColor=none;align=center;verticalAlign=middle;whiteSpace=wrap;rounded=0;" parent="1" vertex="1">
          <mxGeometry x="-590" y="350" width="130" height="30" as="geometry" />
        </mxCell>
        <mxCell id="rkLHnBhGYaF2uc3NjKM3-44" value="&lt;span style=&quot;font-size: 19px;&quot;&gt;eventDetail.jsp&lt;/span&gt;" style="rounded=0;whiteSpace=wrap;html=1;" parent="1" vertex="1">
          <mxGeometry x="335" y="725" width="175" height="60" as="geometry" />
        </mxCell>
        <mxCell id="rkLHnBhGYaF2uc3NjKM3-45" value="" style="endArrow=classic;html=1;rounded=0;exitX=0.5;exitY=1;exitDx=0;exitDy=0;" parent="1" target="rkLHnBhGYaF2uc3NjKM3-44" edge="1" source="rkLHnBhGYaF2uc3NjKM3-8">
          <mxGeometry width="50" height="50" relative="1" as="geometry">
            <mxPoint x="417.02" y="625" as="sourcePoint" />
            <mxPoint x="417.02" y="715" as="targetPoint" />
          </mxGeometry>
        </mxCell>
        <mxCell id="rkLHnBhGYaF2uc3NjKM3-47" value="이미지가 없는&lt;br&gt;해당 이벤트 게시글 상세보기로 이동" style="text;html=1;strokeColor=none;fillColor=none;align=center;verticalAlign=middle;whiteSpace=wrap;rounded=0;" parent="1" vertex="1">
          <mxGeometry x="417.5" y="650" width="130" height="30" as="geometry" />
        </mxCell>
        <mxCell id="nXmFsh59E-W-UfocN87j-48" style="edgeStyle=orthogonalEdgeStyle;rounded=0;orthogonalLoop=1;jettySize=auto;html=1;exitX=0.5;exitY=0;exitDx=0;exitDy=0;entryX=0.5;entryY=1;entryDx=0;entryDy=0;" parent="1" source="rkLHnBhGYaF2uc3NjKM3-49" target="rkLHnBhGYaF2uc3NjKM3-53" edge="1">
          <mxGeometry relative="1" as="geometry" />
        </mxCell>
        <mxCell id="rkLHnBhGYaF2uc3NjKM3-49" value="&lt;span style=&quot;font-size: 19px;&quot;&gt;eventUpdate.do&lt;/span&gt;" style="rounded=0;whiteSpace=wrap;html=1;" parent="1" vertex="1">
          <mxGeometry x="342.5" y="-40" width="187.5" height="60" as="geometry" />
        </mxCell>
        <mxCell id="nXmFsh59E-W-UfocN87j-53" style="edgeStyle=orthogonalEdgeStyle;rounded=0;orthogonalLoop=1;jettySize=auto;html=1;" parent="1" source="rkLHnBhGYaF2uc3NjKM3-53" edge="1">
          <mxGeometry relative="1" as="geometry">
            <mxPoint x="610" y="-200" as="targetPoint" />
          </mxGeometry>
        </mxCell>
        <mxCell id="nXmFsh59E-W-UfocN87j-54" style="edgeStyle=orthogonalEdgeStyle;rounded=0;orthogonalLoop=1;jettySize=auto;html=1;exitX=0.5;exitY=0;exitDx=0;exitDy=0;entryX=0.455;entryY=1.026;entryDx=0;entryDy=0;entryPerimeter=0;" parent="1" source="rkLHnBhGYaF2uc3NjKM3-53" edge="1">
          <mxGeometry relative="1" as="geometry">
            <mxPoint x="435.3000000000002" y="-338.44000000000005" as="targetPoint" />
          </mxGeometry>
        </mxCell>
        <mxCell id="rkLHnBhGYaF2uc3NjKM3-53" value="&lt;span style=&quot;font-size: 18px;&quot;&gt;edit.do&lt;br&gt;&lt;/span&gt;" style="text;html=1;strokeColor=none;fillColor=#FFFF78;align=center;verticalAlign=middle;whiteSpace=wrap;rounded=0;" parent="1" vertex="1">
          <mxGeometry x="372.5" y="-250" width="127.5" height="100" as="geometry" />
        </mxCell>
        <mxCell id="rkLHnBhGYaF2uc3NjKM3-55" value="DB에서 수정요청" style="text;html=1;strokeColor=none;fillColor=none;align=center;verticalAlign=middle;whiteSpace=wrap;rounded=0;" parent="1" vertex="1">
          <mxGeometry x="490" y="-230" width="120" height="30" as="geometry" />
        </mxCell>
        <mxCell id="rkLHnBhGYaF2uc3NjKM3-56" value="입력된 데이터 추가 요청" style="text;html=1;strokeColor=none;fillColor=none;align=center;verticalAlign=middle;whiteSpace=wrap;rounded=0;" parent="1" vertex="1">
          <mxGeometry x="440" y="-100" width="140" height="30" as="geometry" />
        </mxCell>
        <mxCell id="rkLHnBhGYaF2uc3NjKM3-61" value="DB에 입력후 목록 페이지로 이동" style="text;html=1;strokeColor=none;fillColor=none;align=center;verticalAlign=middle;whiteSpace=wrap;rounded=0;" parent="1" vertex="1">
          <mxGeometry x="432.5" y="-310" width="155" height="30" as="geometry" />
        </mxCell>
        <mxCell id="rkLHnBhGYaF2uc3NjKM3-62" value="이벤트 목록으로 이동" style="text;html=1;strokeColor=none;fillColor=none;align=center;verticalAlign=middle;whiteSpace=wrap;rounded=0;" parent="1" vertex="1">
          <mxGeometry x="720" y="390" width="130" height="30" as="geometry" />
        </mxCell>
        <mxCell id="nXmFsh59E-W-UfocN87j-2" value="&lt;font style=&quot;font-size: 19px;&quot;&gt;eventList.jsp&lt;/font&gt;" style="rounded=0;whiteSpace=wrap;html=1;" parent="1" vertex="1">
          <mxGeometry x="-750" y="350" width="160" height="60" as="geometry" />
        </mxCell>
        <mxCell id="nXmFsh59E-W-UfocN87j-10" value="" style="endArrow=classic;html=1;rounded=0;exitX=0.5;exitY=1;exitDx=0;exitDy=0;" parent="1" source="rkLHnBhGYaF2uc3NjKM3-21" edge="1">
          <mxGeometry width="50" height="50" relative="1" as="geometry">
            <mxPoint x="-350" y="380" as="sourcePoint" />
            <mxPoint x="-125" y="530" as="targetPoint" />
          </mxGeometry>
        </mxCell>
        <mxCell id="nXmFsh59E-W-UfocN87j-56" style="edgeStyle=orthogonalEdgeStyle;rounded=0;orthogonalLoop=1;jettySize=auto;html=1;exitX=0;exitY=0.5;exitDx=0;exitDy=0;" parent="1" source="nXmFsh59E-W-UfocN87j-11" target="nXmFsh59E-W-UfocN87j-14" edge="1">
          <mxGeometry relative="1" as="geometry" />
        </mxCell>
        <mxCell id="nXmFsh59E-W-UfocN87j-11" value="&lt;span style=&quot;font-size: 18px;&quot;&gt;imageUpload.do&lt;br&gt;&lt;/span&gt;" style="text;html=1;strokeColor=none;fillColor=#FFFF78;align=center;verticalAlign=middle;whiteSpace=wrap;rounded=0;" parent="1" vertex="1">
          <mxGeometry x="-185" y="530" width="145" height="100" as="geometry" />
        </mxCell>
        <mxCell id="nXmFsh59E-W-UfocN87j-12" value="이미지 있는 게시글 추가" style="text;html=1;strokeColor=none;fillColor=none;align=center;verticalAlign=middle;whiteSpace=wrap;rounded=0;" parent="1" vertex="1">
          <mxGeometry x="-130" y="450" width="140" height="30" as="geometry" />
        </mxCell>
        <mxCell id="nXmFsh59E-W-UfocN87j-14" value="&lt;span style=&quot;font-size: 18px;&quot;&gt;Tomcat&lt;br&gt;Server&lt;br&gt;&lt;/span&gt;" style="shape=cube;whiteSpace=wrap;html=1;boundedLbl=1;backgroundOutline=1;darkOpacity=0.05;darkOpacity2=0.1;" parent="1" vertex="1">
          <mxGeometry x="-450" y="525" width="120" height="110" as="geometry" />
        </mxCell>
        <mxCell id="nXmFsh59E-W-UfocN87j-15" value="서버에 이미지 경로 추가" style="text;html=1;strokeColor=none;fillColor=none;align=center;verticalAlign=middle;whiteSpace=wrap;rounded=0;" parent="1" vertex="1">
          <mxGeometry x="-320" y="540" width="135" height="30" as="geometry" />
        </mxCell>
        <mxCell id="nXmFsh59E-W-UfocN87j-18" value="&lt;font style=&quot;font-size: 19px;&quot;&gt;eventList.jsp&lt;/font&gt;" style="rounded=0;whiteSpace=wrap;html=1;" parent="1" vertex="1">
          <mxGeometry x="-192.5" y="900" width="160" height="60" as="geometry" />
        </mxCell>
        <mxCell id="nXmFsh59E-W-UfocN87j-55" style="edgeStyle=orthogonalEdgeStyle;rounded=0;orthogonalLoop=1;jettySize=auto;html=1;" parent="1" source="nXmFsh59E-W-UfocN87j-19" edge="1">
          <mxGeometry relative="1" as="geometry">
            <mxPoint x="-300" y="760" as="targetPoint" />
          </mxGeometry>
        </mxCell>
        <mxCell id="nXmFsh59E-W-UfocN87j-19" value="&lt;span style=&quot;font-size: 18px;&quot;&gt;insert.do&lt;br&gt;&lt;/span&gt;" style="text;html=1;strokeColor=none;fillColor=#FFFF78;align=center;verticalAlign=middle;whiteSpace=wrap;rounded=0;" parent="1" vertex="1">
          <mxGeometry x="-172.5" y="710" width="120" height="100" as="geometry" />
        </mxCell>
        <mxCell id="nXmFsh59E-W-UfocN87j-20" value="" style="endArrow=classic;html=1;rounded=0;exitX=0.452;exitY=1.022;exitDx=0;exitDy=0;exitPerimeter=0;" parent="1" source="nXmFsh59E-W-UfocN87j-11" edge="1">
          <mxGeometry width="50" height="50" relative="1" as="geometry">
            <mxPoint x="-270" y="600" as="sourcePoint" />
            <mxPoint x="-119" y="710" as="targetPoint" />
          </mxGeometry>
        </mxCell>
        <mxCell id="nXmFsh59E-W-UfocN87j-21" value="" style="endArrow=classic;html=1;rounded=0;exitX=0.5;exitY=1;exitDx=0;exitDy=0;entryX=0.5;entryY=0;entryDx=0;entryDy=0;" parent="1" source="nXmFsh59E-W-UfocN87j-19" target="nXmFsh59E-W-UfocN87j-18" edge="1">
          <mxGeometry width="50" height="50" relative="1" as="geometry">
            <mxPoint x="-10" y="720" as="sourcePoint" />
            <mxPoint x="-112" y="860" as="targetPoint" />
          </mxGeometry>
        </mxCell>
        <mxCell id="nXmFsh59E-W-UfocN87j-23" value="&lt;span style=&quot;font-size: 18px;&quot;&gt;event&lt;/span&gt;" style="shape=cube;whiteSpace=wrap;html=1;boundedLbl=1;backgroundOutline=1;darkOpacity=0.05;darkOpacity2=0.1;" parent="1" vertex="1">
          <mxGeometry x="-420" y="700" width="120" height="110" as="geometry" />
        </mxCell>
        <mxCell id="nXmFsh59E-W-UfocN87j-24" value="DB에 추가요청" style="text;html=1;strokeColor=none;fillColor=none;align=center;verticalAlign=middle;whiteSpace=wrap;rounded=0;" parent="1" vertex="1">
          <mxGeometry x="-292.5" y="710" width="120" height="30" as="geometry" />
        </mxCell>
        <mxCell id="nXmFsh59E-W-UfocN87j-27" value="게시글 추가후 목록으로 이동" style="text;html=1;strokeColor=none;fillColor=none;align=center;verticalAlign=middle;whiteSpace=wrap;rounded=0;" parent="1" vertex="1">
          <mxGeometry x="-110" y="830" width="130" height="30" as="geometry" />
        </mxCell>
        <mxCell id="nXmFsh59E-W-UfocN87j-28" value="&lt;span style=&quot;font-size: 18px;&quot;&gt;event&lt;/span&gt;" style="shape=cube;whiteSpace=wrap;html=1;boundedLbl=1;backgroundOutline=1;darkOpacity=0.05;darkOpacity2=0.1;" parent="1" vertex="1">
          <mxGeometry x="-460" y="130" width="120" height="110" as="geometry" />
        </mxCell>
        <mxCell id="nXmFsh59E-W-UfocN87j-29" value="&lt;font style=&quot;font-size: 19px;&quot;&gt;eventList.jsp&lt;/font&gt;" style="rounded=0;whiteSpace=wrap;html=1;" parent="1" vertex="1">
          <mxGeometry x="-200" y="230" width="160" height="60" as="geometry" />
        </mxCell>
        <mxCell id="nXmFsh59E-W-UfocN87j-44" style="edgeStyle=orthogonalEdgeStyle;rounded=0;orthogonalLoop=1;jettySize=auto;html=1;exitX=1;exitY=0.5;exitDx=0;exitDy=0;" parent="1" source="nXmFsh59E-W-UfocN87j-34" target="nXmFsh59E-W-UfocN87j-43" edge="1">
          <mxGeometry relative="1" as="geometry" />
        </mxCell>
        <mxCell id="nXmFsh59E-W-UfocN87j-34" value="&lt;span style=&quot;font-size: 18px;&quot;&gt;ckImgSubmit.do&lt;br&gt;&lt;/span&gt;" style="text;html=1;strokeColor=none;fillColor=#FFFF78;align=center;verticalAlign=middle;whiteSpace=wrap;rounded=0;" parent="1" vertex="1">
          <mxGeometry x="597.5" y="525" width="145" height="100" as="geometry" />
        </mxCell>
        <mxCell id="nXmFsh59E-W-UfocN87j-36" value="해당 게시글에 이미지가 있을시 이미지 경로를 요청한다" style="text;html=1;strokeColor=none;fillColor=none;align=center;verticalAlign=middle;whiteSpace=wrap;rounded=0;" parent="1" vertex="1">
          <mxGeometry x="480" y="530" width="130" height="30" as="geometry" />
        </mxCell>
        <mxCell id="nXmFsh59E-W-UfocN87j-37" value="&lt;span style=&quot;font-size: 18px;&quot;&gt;Tomcat&lt;br&gt;Server&lt;br&gt;&lt;/span&gt;" style="shape=cube;whiteSpace=wrap;html=1;boundedLbl=1;backgroundOutline=1;darkOpacity=0.05;darkOpacity2=0.1;" parent="1" vertex="1">
          <mxGeometry x="610" y="700" width="120" height="110" as="geometry" />
        </mxCell>
        <mxCell id="nXmFsh59E-W-UfocN87j-38" value="" style="endArrow=classic;startArrow=classic;html=1;rounded=0;exitX=0;exitY=0;exitDx=50;exitDy=0;exitPerimeter=0;entryX=0.434;entryY=1.036;entryDx=0;entryDy=0;entryPerimeter=0;" parent="1" source="nXmFsh59E-W-UfocN87j-37" target="nXmFsh59E-W-UfocN87j-34" edge="1">
          <mxGeometry width="50" height="50" relative="1" as="geometry">
            <mxPoint x="500" y="600" as="sourcePoint" />
            <mxPoint x="550" y="550" as="targetPoint" />
          </mxGeometry>
        </mxCell>
        <mxCell id="nXmFsh59E-W-UfocN87j-41" value="이미지 경로 요청" style="text;html=1;strokeColor=none;fillColor=none;align=center;verticalAlign=middle;whiteSpace=wrap;rounded=0;" parent="1" vertex="1">
          <mxGeometry x="670" y="650" width="80" height="30" as="geometry" />
        </mxCell>
        <mxCell id="nXmFsh59E-W-UfocN87j-42" value="이미지 경로 전달" style="text;html=1;strokeColor=none;fillColor=none;align=center;verticalAlign=middle;whiteSpace=wrap;rounded=0;" parent="1" vertex="1">
          <mxGeometry x="580" y="650" width="80" height="30" as="geometry" />
        </mxCell>
        <mxCell id="nXmFsh59E-W-UfocN87j-43" value="&lt;span style=&quot;font-size: 19px;&quot;&gt;eventDetail.jsp&lt;/span&gt;" style="rounded=0;whiteSpace=wrap;html=1;" parent="1" vertex="1">
          <mxGeometry x="890" y="545" width="175" height="60" as="geometry" />
        </mxCell>
        <mxCell id="nXmFsh59E-W-UfocN87j-45" value="이미지가 있는&lt;br&gt;해당 이벤트 게시글 상세보기로 이동" style="text;html=1;strokeColor=none;fillColor=none;align=center;verticalAlign=middle;whiteSpace=wrap;rounded=0;" parent="1" vertex="1">
          <mxGeometry x="750" y="540" width="117.5" height="30" as="geometry" />
        </mxCell>
        <mxCell id="nXmFsh59E-W-UfocN87j-57" value="이벤트 게시물 수정요청" style="text;html=1;strokeColor=none;fillColor=none;align=center;verticalAlign=middle;whiteSpace=wrap;rounded=0;" parent="1" vertex="1">
          <mxGeometry x="427.5" y="240" width="132.5" height="30" as="geometry" />
        </mxCell>
        <mxCell id="nXmFsh59E-W-UfocN87j-59" value="&lt;span style=&quot;font-size: 18px;&quot;&gt;event&lt;/span&gt;" style="shape=cube;whiteSpace=wrap;html=1;boundedLbl=1;backgroundOutline=1;darkOpacity=0.05;darkOpacity2=0.1;" parent="1" vertex="1">
          <mxGeometry x="130" y="10" width="120" height="110" as="geometry" />
        </mxCell>
        <mxCell id="nXmFsh59E-W-UfocN87j-60" value="&lt;span style=&quot;font-size: 18px;&quot;&gt;event&lt;/span&gt;" style="shape=cube;whiteSpace=wrap;html=1;boundedLbl=1;backgroundOutline=1;darkOpacity=0.05;darkOpacity2=0.1;" parent="1" vertex="1">
          <mxGeometry x="610" y="-250" width="120" height="110" as="geometry" />
        </mxCell>
        <mxCell id="nXmFsh59E-W-UfocN87j-61" value="&lt;font style=&quot;font-size: 19px;&quot;&gt;eventList.jsp&lt;/font&gt;" style="rounded=0;whiteSpace=wrap;html=1;" parent="1" vertex="1">
          <mxGeometry x="357.5" y="-400" width="160" height="60" as="geometry" />
        </mxCell>
      </root>
    </mxGraphModel>
  </diagram>
</mxfile>
